<svg xmlns="http://www.w3.org/2000/svg" xmlns:xlink="http://www.w3.org/1999/xlink" viewBox="0 0 1920 1080"><defs><style>.a{fill:none;}.b{clip-path:url(#c);}.c{clip-path:url(#a);}.d{fill:#aab2bd;}.e{fill:#ff826e;}.f{fill:#ffeaa7;}.g{fill:#b4dd7f;}.h{fill:#ac92ec;}.i{fill:#e6e9ed;}.j{fill:#efefd2;}.k{fill:#4c241d;}.l{fill:#ffce56;}.m{fill:#a9ba5a;}.n{fill:#f53e28;}.o{fill:#bf7e68;}.p{fill:#6b4f5b;}.q{fill:#0faa00;}.r{fill:#02eae6;}</style><clipPath id="a"><rect class="a" width="1174.333" height="716.333"/></clipPath><clipPath id="c"><rect width="1920" height="1080"/></clipPath></defs><g id="b" class="b"><g class="c" transform="translate(596 182)"><rect class="a" width="1174.333" height="716.333"/><g transform="translate(749.861 135.307)"><path class="d" d="M17.786,280c-5.4.017-9.771,4.758-9.786,10.612v10.612c.015,5.854,4.388,10.6,9.786,10.612H179.257c5.039-13.159,14.679-24.3,24.465-31.785V280Zm0,0" transform="translate(-3.107 -94.284)"/><path class="e" d="M321.782,161.631A78.143,78.143,0,0,1,307.2,207.423H307.1c-.831,0-1.615,0-2.447.052a59.594,59.594,0,0,0-31.463,10.612v-.052H208.948a75.32,75.32,0,0,1-21.682-36.56,21.94,21.94,0,0,0,7.28-17.353A21.633,21.633,0,0,0,186,147.463,75.663,75.663,0,0,1,212.128,102.2C225,91.748,243.3,94.879,253.28,108.515c10.226-13.9,28.869-16.553,41.885-5.677,16.807,14.055,26.642,35.777,26.618,58.793Zm0,0" transform="translate(-72.236 -32.319)"/><path class="f" d="M343.7,264c25.5-.038,48.551,16.438,58.575,41.862s5.08,54.881-12.561,74.845-44.57,26.575-68.42,16.8a74.651,74.651,0,0,0,7.144-6.793l-48.2-52.476c-.093-1.752-.239-3.5-.239-5.254-.008-23.685,11.21-45.711,29.7-58.316a59.582,59.582,0,0,1,31.463-10.612c.831-.052,1.615-.052,2.447-.052Zm0,0" transform="translate(-108.743 -88.896)"/><path class="e" d="M280.214,375.868l48.2,52.476a74.041,74.041,0,0,1-7.144,6.793,64.954,64.954,0,0,1-41.351,15.069v-.052l.048-74.235.146-.158Zm0,0" transform="translate(-108.712 -126.53)"/><path class="e" d="M236.5,375.974,188.062,428.4A77.547,77.547,0,0,1,168,375.922h.048Zm0,0" transform="translate(-65.246 -126.584)"/><path class="e" d="M249.194,450.235v.052c-1.615,0-3.23-.052-4.845-.212a66.115,66.115,0,0,1-43.548-21.65L249.241,376Zm0,0" transform="translate(-77.984 -126.61)"/><path class="e" d="M207.535,317.225,236.649,348.9l-.147.158-68.455-.052H168A77.4,77.4,0,0,1,188.06,296Zm0,0" transform="translate(-65.245 -99.672)"/><path class="g" d="M133.358,56h29.358c-.022,17.573-13.153,31.813-29.358,31.837H104c.022-17.573,13.153-31.813,29.358-31.837Zm0,0" transform="translate(-40.39 -18.857)"/><path class="g" d="M325.358,8h29.358a32.942,32.942,0,0,1-8.611,22.5,28,28,0,0,1-20.748,9.338H296C296.022,22.264,309.153,8.024,325.358,8Zm0,0" transform="translate(-114.957 -2.694)"/><path class="g" d="M66.717,119.837H37.358C21.149,119.824,8.012,105.577,8,88H37.358C53.567,88.014,66.7,102.26,66.717,119.837Zm0,0" transform="translate(-3.107 -29.632)"/><path class="h" d="M121.77,200c-.021,10.534,7.117,19.474,16.734,20.959a22.306,22.306,0,0,1,2.839,10.878c0,11.722-8.763,21.225-19.572,21.225s-19.572-9.5-19.572-21.225a22.306,22.306,0,0,0-2.839-10.878,12.568,12.568,0,0,0,2.839.265C113.008,221.228,121.773,211.723,121.77,200Zm0,0" transform="translate(-38.588 -67.346)"/><path class="h" d="M89.029,210.437c-10.273-1.794-17.4-12.08-16.121-23.279s10.491-19.3,20.858-18.329,18.169,10.658,17.659,21.928S102.272,210.84,91.867,210.7A12.569,12.569,0,0,1,89.029,210.437Zm0,0" transform="translate(-28.258 -56.823)"/><path class="h" d="M59.572,200c-.021,10.534,7.117,19.474,16.734,20.959a22.306,22.306,0,0,1,2.839,10.878c0,11.722-8.763,21.225-19.572,21.225S40,243.559,40,231.837a22.306,22.306,0,0,1,2.839-10.878C52.454,219.473,59.591,210.533,59.572,200Zm0,0" transform="translate(-15.535 -67.346)"/><path class="h" d="M153.263,210.882c-10.05-1.773-17.009-11.846-15.753-22.8s10.276-18.877,20.42-17.929,17.782,10.425,17.29,21.454-8.937,19.662-19.119,19.544a12.567,12.567,0,0,1-2.839-.265Zm0,0" transform="translate(-53.348 -57.268)"/><path class="h" d="M30.057,209.881a12.568,12.568,0,0,1-2.839.265c-10.683.164-19.569-8.873-20.1-20.445s7.474-21.526,18.119-22.521,20.106,7.327,21.405,18.827-6.03,22.053-16.582,23.873Zm0,0" transform="translate(-2.753 -56.267)"/><path class="i" d="M261.607,354.531c0,1.752.146,3.5.245,5.254l-.1-.111L232.641,328H266.5a74.085,74.085,0,0,0-4.893,26.531Zm0,0" transform="translate(-90.35 -110.447)"/><path class="i" d="M175.685,433.911v.212h-63.61c-48.633,0-88.067-42.756-88.075-95.5V328h94.436a80.676,80.676,0,0,0-6.361,31.785c.055,38.95,27.789,71.269,63.61,74.126Zm0,0" transform="translate(-9.321 -110.447)"/><path d="M394.618,313.957l-6.477-7.949a32.186,32.186,0,0,1-45.223,0l-6.477,7.949c16.611,15.927,41.565,15.927,58.177,0Zm0,0" transform="translate(-130.663 -103.042)"/><path d="M355.572,169.7q0,1.525-.089,3.039l9.767.643c.069-1.215.108-2.445.108-3.682.047-18.093-7.7-35.174-20.936-46.184C342.4,121.816,339.9,120,336,120v10.612c.55,0,.891,0,2.437,1.3C349.273,140.915,355.611,154.893,355.572,169.7Zm0,0" transform="translate(-130.492 -40.407)"/><path d="M243.788,170.5c19.384-34.6,11.679-79.474-17.89-104.191a32.77,32.77,0,0,0-39.962-1.884V42.449H210.4c18.907-.025,34.228-16.64,34.251-37.143V0H210.4c-18.907.025-34.228,16.64-34.251,37.143V64.408c-11.869-8.177-27.607-8.166-39.173,1.256A79.879,79.879,0,0,0,110.435,107.6a22.311,22.311,0,0,0-7.681-1.474A23.827,23.827,0,0,0,83.182,116.9,24.35,24.35,0,0,0,68.5,106.66V74.286H92.968c18.907-.025,34.228-16.64,34.251-37.143V31.837H92.968c-17.331.029-31.916,14.079-33.986,32.739A32.921,32.921,0,0,0,34.251,53.062H0v5.306c.023,20.5,15.344,37.118,34.251,37.143H58.717V106.66A24.35,24.35,0,0,0,44.038,116.9c-6.528-9.57-18.145-13.238-28.39-8.963S-.952,123.375.117,135.222s9.3,21.464,20.114,23.5a28.057,28.057,0,0,0-.659,5.766,27.725,27.725,0,0,0,5.02,15.919H14.679C6.576,180.421.01,187.542,0,196.328v10.612c.02,6.724,3.939,12.706,9.786,14.941v6.283c0,55.593,41.7,100.817,92.968,100.817h63.61v-.259c1.624.117,3.25.259,4.893.259a68.814,68.814,0,0,0,42.095-14.512,63.066,63.066,0,0,0,21.515,3.9c37.816-.044,68.462-33.278,68.5-74.286,0-37.674-26.021-68.817-59.582-73.582ZM210.4,10.612h23.97c-2.338,12.344-12.35,21.209-23.97,21.225h-23.97c2.338-12.344,12.35-21.209,23.97-21.225ZM92.968,42.449h23.97c-2.34,12.343-12.351,21.207-23.97,21.225H69c2.338-12.344,12.35-21.209,23.97-21.225ZM34.251,84.9c-11.62-.016-21.632-8.881-23.97-21.225h23.97c11.62.016,21.632,8.881,23.97,21.225Zm108.6-10.755c10.14-8.252,24.735-6.236,33.3,4.189V90.2h9.786V78.346c8.721-10.566,23.593-12.333,33.977-3.635,25.99,21.731,32.441,61.352,14.885,91.42a78.323,78.323,0,0,0-16.043-26.611l-6.919,7.5a67.762,67.762,0,0,1,14.025,23.5,64.44,64.44,0,0,0-26.095,9.895H138.58a69.709,69.709,0,0,1-17.982-29.73,27.532,27.532,0,0,0,6.6-19.058,27.2,27.2,0,0,0-7.957-18.44,69.5,69.5,0,0,1,23.609-39.042ZM68.5,164.491a28.056,28.056,0,0,0-.659-5.77A24.184,24.184,0,0,0,83.182,148.41a24.454,24.454,0,0,0,13.272,9.773,16.3,16.3,0,0,1,1.407,6.309c0,8.792-6.572,15.919-14.679,15.919S68.5,173.283,68.5,164.491ZM63.736,180.41h-.249c.039-.06.089-.106.127-.163C63.648,180.3,63.694,180.35,63.736,180.41Zm43.911-15.919a28.057,28.057,0,0,0-.659-5.77,22.682,22.682,0,0,0,5.3-1.64,80.688,80.688,0,0,0,12.664,23.329H102.632A27.755,27.755,0,0,0,107.647,164.491Zm15.3,39.5,36.806,40.084-51.876-.049a72.427,72.427,0,0,1,15.071-40.034Zm36.487,50.7L123,294.132a72.217,72.217,0,0,1-15.057-39.5Zm6.911,7.508-.045,55.914A60.374,60.374,0,0,1,129.9,301.656Zm9.786-.283,36.527,39.77A60.4,60.4,0,0,1,176.1,318.138Zm-22.049-39.053H169.25a78.957,78.957,0,0,0-2.535,13.748Zm18.98-10.612H144.34l-19.488-21.225h62.167a74.815,74.815,0,0,0-13.951,21.225Zm-70.314-95.511c8.107,0,14.679,7.127,14.679,15.919s-6.572,15.919-14.679,15.919-14.679-7.127-14.679-15.919S94.651,116.747,102.754,116.736Zm-39.144,0c8.107,0,14.679,7.127,14.679,15.919s-6.572,15.919-14.679,15.919-14.679-7.127-14.679-15.919,6.576-15.907,14.679-15.919ZM9.786,132.654c0-8.792,6.572-15.919,14.679-15.919s14.679,7.127,14.679,15.919-6.572,15.919-14.679,15.919S9.8,141.441,9.786,132.654Zm19.572,31.837a16.3,16.3,0,0,1,1.407-6.309,24.454,24.454,0,0,0,13.272-9.773,24.453,24.453,0,0,0,13.272,9.773,16.3,16.3,0,0,1,1.407,6.309c0,8.792-6.572,15.919-14.679,15.919s-14.679-7.127-14.679-15.919ZM9.786,196.328a5.115,5.115,0,0,1,4.893-5.306H120.785l-1.434,1.56a79.581,79.581,0,0,0-13.222,19.665H14.679a5.115,5.115,0,0,1-4.893-5.306ZM102.754,318.37c-45.867,0-83.182-40.465-83.182-90.2v-5.306H102.02c-8.9,28.021-3.18,60.373,17.326,82.71a74.805,74.805,0,0,0,15.447,12.8Zm132.112-10.612a53.367,53.367,0,0,1-12.369-1.526c.215-.228.454-.43.669-.663l3.436-3.746-50.316-54.79c-.057-.982-.136-1.953-.136-2.951.037-32.544,22.673-59.834,52.512-63.309a73.435,73.435,0,0,1,1.313,13.736v7.125h9.786V194.51a84.713,84.713,0,0,0-1.19-13.9c31.642,2.145,55.991,31.157,54.99,65.52s-26.99,61.65-58.693,61.626Zm0,0"/><path d="M423.144,368c-.025,23.433-17.536,42.423-39.144,42.449v10.612c27.011-.033,48.9-23.77,48.931-53.062Zm0,0" transform="translate(-149.133 -123.916)"/></g><g transform="translate(577.992 468.269)"><ellipse class="j" cx="52.6" cy="57.041" rx="52.6" ry="57.041" transform="translate(41.591 0.98)"/><path class="k" d="M189.259,50.323A2.453,2.453,0,0,1,187,48.684a2.819,2.819,0,0,1,.533-2.892l9.005-9.732a2.314,2.314,0,0,1,3.46.005,2.814,2.814,0,0,1,0,3.752l-9.005,9.731a2.35,2.35,0,0,1-1.727.775Z" transform="translate(-90.901 -35.269)"/><path class="k" d="M198.258,50.332a2.346,2.346,0,0,1-1.733-.78l-8.971-9.765a2.815,2.815,0,0,1,.006-3.753,2.315,2.315,0,0,1,3.461.007l8.971,9.765a2.819,2.819,0,0,1,.527,2.891A2.453,2.453,0,0,1,198.258,50.332Z" transform="translate(-90.911 -35.26)"/><ellipse class="k" cx="2.77" cy="3.004" rx="2.77" ry="3.004" transform="translate(128.23 36.429)"/><path class="l" d="M66.8,89.592a10.719,10.719,0,0,0-5.544-.086c-5.205,1.3-8.938,6.263-9.074,12.054L52.65,115.4a31.388,31.388,0,0,1-1.513,10.873l-2.283,6.991a15.451,15.451,0,0,0,.815,12.586,14.659,14.659,0,0,0,13.57,8.241A14.129,14.129,0,0,0,73.706,148.4a13.469,13.469,0,0,0,12.125-.02A15.372,15.372,0,0,0,94.252,136.7a16.306,16.306,0,0,0-4.463-14.015l-4.577-4.842a29.306,29.306,0,0,1-5.841-9.15l-5.1-12.617" transform="translate(-36.947 -53.418)"/><path class="k" d="M60.973,155.416a17.131,17.131,0,0,1-14.985-9.625A18.284,18.284,0,0,1,45,131.033l2.281-6.993a28.381,28.381,0,0,0,1.379-9.883L48.2,100.309a15.793,15.793,0,0,1,5.56-11.981,13.273,13.273,0,0,1,12.124-2.649,2.681,2.681,0,0,1,1.75,3.237,2.436,2.436,0,0,1-2.985,1.9,8.46,8.46,0,0,0-4.379-.066,9.9,9.9,0,0,0-7.176,9.542l.464,13.667A34.1,34.1,0,0,1,51.9,125.81l-2.281,6.99a12.594,12.594,0,0,0,.645,10.411,12.091,12.091,0,0,0,11.3,6.88,11.807,11.807,0,0,0,8.723-4.744,2.317,2.317,0,0,1,2.875-.715,11.248,11.248,0,0,0,10.107-.013,12.74,12.74,0,0,0,7.029-9.723,13.511,13.511,0,0,0-3.763-11.662l-4.577-4.842a31.815,31.815,0,0,1-6.375-9.986l-5.1-12.615a2.744,2.744,0,0,1,1.259-3.5,2.377,2.377,0,0,1,3.223,1.365l5.1,12.615a26.471,26.471,0,0,0,5.309,8.317l4.576,4.842a18.649,18.649,0,0,1,4.472,7.394,20.206,20.206,0,0,1,.843,5.918,18.654,18.654,0,0,1-9.963,16.7,15.691,15.691,0,0,1-12.482.73,16.288,16.288,0,0,1-11,5.215c-.285.017-.569.024-.856.024Z" transform="translate(-35.406 -52.072)"/><path class="m" d="M13.609.39C20.88.1,26.66,2.727,26.519,6.266s-6.151,6.646-13.422,6.94S.046,10.869.187,7.33,6.338.684,13.609.39Z" transform="translate(20.381 30.349) rotate(-41.272)"/><path class="k" d="M72.846,81.428a14,14,0,0,1-3.634-.472,2.593,2.593,0,0,1-1.841-2.276A20.289,20.289,0,0,1,73.7,62.319c4.51-4.29,10.553-6.081,15.783-4.677a2.593,2.593,0,0,1,1.842,2.278A20.3,20.3,0,0,1,85,76.281,17.938,17.938,0,0,1,72.846,81.43ZM72.2,76.106c7.286.124,13.473-5.762,14.306-13.613C79.214,62.367,73.026,68.254,72.2,76.106Z" transform="translate(-44.478 -42.638)"/><path class="k" d="M57.919,84.4c-3.984-8.5-10.527-8.93-11.93-8.583L44.9,70.643c2.8-.7,12.014-.1,17.383,11.351Z" transform="translate(-35.786 -47.108)"/><path class="m" d="M138.413,98.573l-5.349-1.243-7.87-22.458,7.718.58Z" transform="translate(-66.97 -48.599)"/><path class="k" d="M136.86,99.879a2.139,2.139,0,0,1-.513-.06L131,98.576a2.515,2.515,0,0,1-1.774-1.65l-7.87-22.458a2.84,2.84,0,0,1,.321-2.524,2.435,2.435,0,0,1,2.135-1.067l7.718.58a2.508,2.508,0,0,1,2.2,1.985l5.5,23.121a2.83,2.83,0,0,1-.435,2.288,2.384,2.384,0,0,1-1.934,1.028Zm-3.535-6.187.177.039L129.43,76.619l-2.146-.161Z" transform="translate(-65.417 -47.252)"/><path class="m" d="M157.193,98.573l5.349-1.243,7.87-22.458-7.718.58Z" transform="translate(-79.398 -48.599)"/><path class="k" d="M155.64,99.879a2.384,2.384,0,0,1-1.934-1.028,2.83,2.83,0,0,1-.435-2.288l5.5-23.121a2.508,2.508,0,0,1,2.2-1.985l7.718-.58a2.408,2.408,0,0,1,2.135,1.067,2.839,2.839,0,0,1,.321,2.524l-7.87,22.458a2.515,2.515,0,0,1-1.774,1.65l-5.349,1.244a2.135,2.135,0,0,1-.513.06Zm7.429-23.261L159,93.73l.177-.039,6.04-17.234Z" transform="translate(-77.844 -47.251)"/><path class="m" d="M146,72.738h7.34V96.616H146Z" transform="translate(-75.051 -47.88)"/><path class="k" d="M151.786,97.922h-7.34A2.556,2.556,0,0,1,142,95.269V71.391a2.556,2.556,0,0,1,2.447-2.653h7.34a2.556,2.556,0,0,1,2.447,2.653V95.269A2.556,2.556,0,0,1,151.786,97.922Zm-4.893-5.306h2.447V74.044h-2.447Z" transform="translate(-73.497 -46.533)"/><ellipse class="n" cx="26.912" cy="29.184" rx="26.912" ry="29.184" transform="translate(46.484 43.43)"/><path class="k" d="M131.358,160.412c-16.214,0-29.358-14.254-29.358-31.837s13.144-31.837,29.358-31.837,29.358,14.254,29.358,31.837C160.7,146.15,147.565,160.393,131.358,160.412Zm0-58.368c-13.512,0-24.465,11.878-24.465,26.531s10.953,26.531,24.465,26.531,24.465-11.878,24.465-26.531C155.808,113.929,144.864,102.061,131.358,102.044Z" transform="translate(-57.963 -55.962)"/><path class="n" d="M150,180.738l4.893,10.612,4.893-10.612" transform="translate(-76.604 -84.247)"/><path class="k" d="M153.339,192.656a2.434,2.434,0,0,1-2.189-1.467l-4.893-10.612a2.761,2.761,0,0,1,1.094-3.56,2.361,2.361,0,0,1,3.283,1.187l2.7,5.866,2.7-5.866a2.361,2.361,0,0,1,3.283-1.187,2.761,2.761,0,0,1,1.094,3.56l-4.893,10.612A2.434,2.434,0,0,1,153.339,192.656Z" transform="translate(-75.05 -82.899)"/><ellipse class="k" cx="2.447" cy="2.653" rx="2.447" ry="2.653" transform="translate(53.824 62.001)"/><ellipse class="k" cx="2.447" cy="2.653" rx="2.447" ry="2.653" transform="translate(83.182 83.226)"/><ellipse class="k" cx="2.447" cy="2.653" rx="2.447" ry="2.653" transform="translate(80.735 54.042)"/><ellipse class="k" cx="2.447" cy="2.653" rx="2.447" ry="2.653" transform="translate(68.503 54.042)"/><ellipse class="k" cx="2.447" cy="2.653" rx="2.447" ry="2.653" transform="translate(61.163 80.573)"/><ellipse class="k" cx="2.447" cy="2.653" rx="2.447" ry="2.653" transform="translate(70.949 75.267)"/><ellipse class="k" cx="2.447" cy="2.653" rx="2.447" ry="2.653" transform="translate(63.61 67.307)"/><ellipse class="k" cx="2.447" cy="2.653" rx="2.447" ry="2.653" transform="translate(83.182 67.307)"/><path class="o" d="M158.808,232.453H52.411a6.281,6.281,0,0,1-6.042-5.958L42,176.738H169.219l-4.37,49.757A6.281,6.281,0,0,1,158.808,232.453Z" transform="translate(-34.66 -82.9)"/><path class="k" d="M157.255,233.759H50.857c-4.4.018-8.076-3.61-8.477-8.357l-4.37-49.759a2.8,2.8,0,0,1,.625-2.037,2.365,2.365,0,0,1,1.811-.868H167.665a2.365,2.365,0,0,1,1.81.868,2.8,2.8,0,0,1,.625,2.036l-4.37,49.759c-.4,4.747-4.08,8.375-8.475,8.357ZM43.136,178.044,47.252,224.9a3.735,3.735,0,0,0,3.609,3.554H157.255a3.735,3.735,0,0,0,3.609-3.554l4.116-46.854Z" transform="translate(-33.106 -81.553)"/><path class="p" d="M94,176.738h9.786v55.715H94Z" transform="translate(-54.856 -82.9)"/><path class="k" d="M102.233,233.759H92.447A2.556,2.556,0,0,1,90,231.106V175.391a2.556,2.556,0,0,1,2.447-2.653h9.786a2.556,2.556,0,0,1,2.447,2.653v55.715A2.556,2.556,0,0,1,102.233,233.759Zm-7.34-5.306h4.893V178.044H94.893Z" transform="translate(-53.302 -81.553)"/><path class="p" d="M182,176.738h9.786v55.715H182Z" transform="translate(-89.032 -82.9)"/><path class="k" d="M190.233,233.759h-9.786A2.556,2.556,0,0,1,178,231.106V175.391a2.556,2.556,0,0,1,2.447-2.653h9.786a2.556,2.556,0,0,1,2.447,2.653v55.715A2.556,2.556,0,0,1,190.233,233.759Zm-7.34-5.306h4.893V178.044h-4.893Z" transform="translate(-87.478 -81.553)"/><path class="k" d="M224.679,194.044H212.447a2.662,2.662,0,0,1,0-5.306h12.233a2.662,2.662,0,0,1,0,5.306Z" transform="translate(-99.906 -86.941)"/><path class="k" d="M222.233,210.044h-9.786a2.662,2.662,0,0,1,0-5.306h9.786a2.662,2.662,0,0,1,0,5.306Z" transform="translate(-99.906 -92.328)"/><path class="k" d="M68.679,194.044H56.447a2.662,2.662,0,0,1,0-5.306H68.679a2.662,2.662,0,0,1,0,5.306Z" transform="translate(-39.321 -86.941)"/><path class="k" d="M70.233,210.044H60.447a2.662,2.662,0,0,1,0-5.306h9.786a2.662,2.662,0,0,1,0,5.306Z" transform="translate(-40.874 -92.328)"/><path class="q" d="M199.126,147.106H182l12.233-58.368h9.786Z" transform="translate(-89.032 -53.268)"/><path class="k" d="M197.572,148.412H180.447a2.38,2.38,0,0,1-1.912-1,2.826,2.826,0,0,1-.474-2.243L190.294,86.8a2.5,2.5,0,0,1,2.385-2.065h9.786a2.365,2.365,0,0,1,1.807.864,2.8,2.8,0,0,1,.63,2.03L200.009,146A2.533,2.533,0,0,1,197.572,148.412Zm-14.06-5.306h11.827l4.447-53.062h-5.154Z" transform="translate(-87.479 -51.921)"/><path class="r" d="M210.893,163.269h17.126l-12.233-26.531H206Z" transform="translate(-98.353 -69.431)"/><path class="k" d="M226.465,164.575H209.34a2.505,2.505,0,0,1-2.4-2.132l-4.893-26.531a2.821,2.821,0,0,1,.507-2.2,2.377,2.377,0,0,1,1.892-.971h9.786a2.434,2.434,0,0,1,2.189,1.467l12.233,26.531a2.849,2.849,0,0,1-.107,2.581A2.411,2.411,0,0,1,226.465,164.575Zm-15.12-5.306h11.161l-9.786-21.225h-5.289Z" transform="translate(-96.799 -68.084)"/><path class="k" d="M247.358,262.044H220.447a2.662,2.662,0,0,1,0-5.306h26.912a2.662,2.662,0,0,1,0,5.306Z" transform="translate(-103.013 -109.838)"/><path class="k" d="M47.126,262.044H32.447a2.662,2.662,0,0,1,0-5.306H47.126a2.662,2.662,0,0,1,0,5.306Z" transform="translate(-30 -109.838)"/></g></g></g></svg>